<svg width="17" height="14" viewBox="0 0 17 14" fill="none" xmlns="http://www.w3.org/2000/svg">
<path id="Vector" d="M16.3462 0H0.653846C0.480435 0 0.314127 0.0737499 0.191507 0.205025C0.0688871 0.336301 0 0.514348 0 0.7V12.6C0 12.9713 0.137774 13.3274 0.383014 13.5899C0.628254 13.8525 0.960871 14 1.30769 14H15.6923C16.0391 14 16.3717 13.8525 16.617 13.5899C16.8622 13.3274 17 12.9713 17 12.6V0.7C17 0.514348 16.9311 0.336301 16.8085 0.205025C16.6859 0.0737499 16.5196 0 16.3462 0ZM14.665 1.4L8.5 7.45062L2.33505 1.4H14.665ZM15.6923 12.6H1.30769V2.29163L8.05784 8.91625C8.17846 9.0348 8.33625 9.10058 8.5 9.10058C8.66375 9.10058 8.82154 9.0348 8.94216 8.91625L15.6923 2.29163V12.6Z" fill="#A0A0A0"/>
</svg>
